<svg xmlns="http://www.w3.org/2000/svg" viewBox="0 0 32 32" shape-rendering="crispEdges"><rect x="10" y="1" width="1" height="1" fill="#00FFFF" /><rect x="11" y="1" width="1" height="1" fill="#00FFFF" /><rect x="12" y="1" width="1" height="1" fill="#00FFFF" /><rect x="13" y="1" width="1" height="1" fill="#00FFFF" /><rect x="14" y="1" width="1" height="1" fill="#00FFFF" /><rect x="15" y="1" width="1" height="1" fill="#00FFFF" /><rect x="16" y="1" width="1" height="1" fill="#00FFFF" /><rect x="17" y="1" width="1" height="1" fill="#00FFFF" /><rect x="18" y="1" width="1" height="1" fill="#00FFFF" /><rect x="19" y="1" width="1" height="1" fill="#00FFFF" /><rect x="20" y="1" width="1" height="1" fill="#00FFFF" /><rect x="21" y="1" width="1" height="1" fill="#00FFFF" /><rect x="8" y="2" width="1" height="1" fill="#00FFFF" /><rect x="9" y="2" width="1" height="1" fill="#00FFFF" /><rect x="22" y="2" width="1" height="1" fill="#00FFFF" /><rect x="23" y="2" width="1" height="1" fill="#00FFFF" /><rect x="7" y="3" width="1" height="1" fill="#00FFFF" /><rect x="8" y="3" width="1" height="1" fill="#00FFFF" /><rect x="23" y="3" width="1" height="1" fill="#00FFFF" /><rect x="24" y="3" width="1" height="1" fill="#00FFFF" /><rect x="6" y="4" width="1" height="1" fill="#00FFFF" /><rect x="7" y="4" width="1" height="1" fill="#00FFFF" /><rect x="24" y="4" width="1" height="1" fill="#00FFFF" /><rect x="25" y="4" width="1" height="1" fill="#00FFFF" /><rect x="6" y="5" width="1" height="1" fill="#00FFFF" /><rect x="7" y="5" width="1" height="1" fill="#00FFFF" /><rect x="12" y="5" width="1" height="1" fill="#209CEE" /><rect x="13" y="5" width="1" height="1" fill="#209CEE" /><rect x="17" y="5" width="1" height="1" fill="#000000" /><rect x="18" y="5" width="1" height="1" fill="#000000" /><rect x="24" y="5" width="1" height="1" fill="#00FFFF" /><rect x="25" y="5" width="1" height="1" fill="#00FFFF" /><rect x="6" y="6" width="1" height="1" fill="#00FFFF" /><rect x="7" y="6" width="1" height="1" fill="#00FFFF" /><rect x="12" y="6" width="1" height="1" fill="#209CEE" /><rect x="13" y="6" width="1" height="1" fill="#209CEE" /><rect x="17" y="6" width="1" height="1" fill="#000000" /><rect x="18" y="6" width="1" height="1" fill="#000000" /><rect x="24" y="6" width="1" height="1" fill="#00FFFF" /><rect x="25" y="6" width="1" height="1" fill="#00FFFF" /><rect x="6" y="7" width="1" height="1" fill="#00FFFF" /><rect x="7" y="7" width="1" height="1" fill="#00FFFF" /><rect x="12" y="7" width="1" height="1" fill="#209CEE" /><rect x="13" y="7" width="1" height="1" fill="#209CEE" /><rect x="17" y="7" width="1" height="1" fill="#000000" /><rect x="18" y="7" width="1" height="1" fill="#000000" /><rect x="19" y="7" width="1" height="1" fill="#000000" /><rect x="24" y="7" width="1" height="1" fill="#00FFFF" /><rect x="25" y="7" width="1" height="1" fill="#00FFFF" /><rect x="6" y="8" width="1" height="1" fill="#00FFFF" /><rect x="7" y="8" width="1" height="1" fill="#00FFFF" /><rect x="12" y="8" width="1" height="1" fill="#209CEE" /><rect x="13" y="8" width="1" height="1" fill="#209CEE" /><rect x="17" y="8" width="1" height="1" fill="#000000" /><rect x="20" y="8" width="1" height="1" fill="#000000" /><rect x="24" y="8" width="1" height="1" fill="#00FFFF" /><rect x="25" y="8" width="1" height="1" fill="#00FFFF" /><rect x="6" y="9" width="1" height="1" fill="#00FFFF" /><rect x="7" y="9" width="1" height="1" fill="#00FFFF" /><rect x="12" y="9" width="1" height="1" fill="#209CEE" /><rect x="13" y="9" width="1" height="1" fill="#209CEE" /><rect x="17" y="9" width="1" height="1" fill="#000000" /><rect x="20" y="9" width="1" height="1" fill="#000000" /><rect x="24" y="9" width="1" height="1" fill="#00FFFF" /><rect x="25" y="9" width="1" height="1" fill="#00FFFF" /><rect x="6" y="10" width="1" height="1" fill="#00FFFF" /><rect x="7" y="10" width="1" height="1" fill="#00FFFF" /><rect x="12" y="10" width="1" height="1" fill="#209CEE" /><rect x="13" y="10" width="1" height="1" fill="#209CEE" /><rect x="17" y="10" width="1" height="1" fill="#000000" /><rect x="20" y="10" width="1" height="1" fill="#000000" /><rect x="24" y="10" width="1" height="1" fill="#00FFFF" /><rect x="25" y="10" width="1" height="1" fill="#00FFFF" /><rect x="6" y="11" width="1" height="1" fill="#00FFFF" /><rect x="7" y="11" width="1" height="1" fill="#00FFFF" /><rect x="12" y="11" width="1" height="1" fill="#209CEE" /><rect x="13" y="11" width="1" height="1" fill="#209CEE" /><rect x="17" y="11" width="1" height="1" fill="#000000" /><rect x="18" y="11" width="1" height="1" fill="#000000" /><rect x="19" y="11" width="1" height="1" fill="#000000" /><rect x="24" y="11" width="1" height="1" fill="#00FFFF" /><rect x="25" y="11" width="1" height="1" fill="#00FFFF" /><rect x="6" y="12" width="1" height="1" fill="#00FFFF" /><rect x="7" y="12" width="1" height="1" fill="#00FFFF" /><rect x="24" y="12" width="1" height="1" fill="#00FFFF" /><rect x="25" y="12" width="1" height="1" fill="#00FFFF" /><rect x="7" y="13" width="1" height="1" fill="#00FFFF" /><rect x="8" y="13" width="1" height="1" fill="#00FFFF" /><rect x="23" y="13" width="1" height="1" fill="#00FFFF" /><rect x="24" y="13" width="1" height="1" fill="#00FFFF" /><rect x="8" y="14" width="1" height="1" fill="#00FFFF" /><rect x="9" y="14" width="1" height="1" fill="#00FFFF" /><rect x="22" y="14" width="1" height="1" fill="#00FFFF" /><rect x="23" y="14" width="1" height="1" fill="#00FFFF" /><rect x="10" y="15" width="1" height="1" fill="#00FFFF" /><rect x="11" y="15" width="1" height="1" fill="#00FFFF" /><rect x="12" y="15" width="1" height="1" fill="#00FFFF" /><rect x="13" y="15" width="1" height="1" fill="#00FFFF" /><rect x="14" y="15" width="1" height="1" fill="#00FFFF" /><rect x="15" y="15" width="1" height="1" fill="#00FFFF" /><rect x="16" y="15" width="1" height="1" fill="#00FFFF" /><rect x="17" y="15" width="1" height="1" fill="#00FFFF" /><rect x="18" y="15" width="1" height="1" fill="#00FFFF" /><rect x="19" y="15" width="1" height="1" fill="#00FFFF" /><rect x="20" y="15" width="1" height="1" fill="#00FFFF" /><rect x="21" y="15" width="1" height="1" fill="#00FFFF" /></svg>