<svg xmlns="http://www.w3.org/2000/svg" viewBox="0 0 32 32" shape-rendering="crispEdges"><rect x="7" y="1" width="1" height="1" fill="#76428A" /><rect x="8" y="1" width="1" height="1" fill="#76428A" /><rect x="9" y="1" width="1" height="1" fill="#76428A" /><rect x="10" y="1" width="1" height="1" fill="#76428A" /><rect x="11" y="1" width="1" height="1" fill="#76428A" /><rect x="12" y="1" width="1" height="1" fill="#76428A" /><rect x="13" y="1" width="1" height="1" fill="#76428A" /><rect x="14" y="1" width="1" height="1" fill="#76428A" /><rect x="15" y="1" width="1" height="1" fill="#76428A" /><rect x="16" y="1" width="1" height="1" fill="#76428A" /><rect x="17" y="1" width="1" height="1" fill="#76428A" /><rect x="18" y="1" width="1" height="1" fill="#76428A" /><rect x="19" y="1" width="1" height="1" fill="#76428A" /><rect x="20" y="1" width="1" height="1" fill="#76428A" /><rect x="21" y="1" width="1" height="1" fill="#76428A" /><rect x="22" y="1" width="1" height="1" fill="#76428A" /><rect x="23" y="1" width="1" height="1" fill="#76428A" /><rect x="24" y="1" width="1" height="1" fill="#76428A" /><rect x="6" y="2" width="1" height="1" fill="#76428A" /><rect x="25" y="2" width="1" height="1" fill="#76428A" /><rect x="6" y="3" width="1" height="1" fill="#76428A" /><rect x="9" y="3" width="1" height="1" fill="#D3D3D3" /><rect x="25" y="3" width="1" height="1" fill="#76428A" /><rect x="6" y="4" width="1" height="1" fill="#76428A" /><rect x="9" y="4" width="1" height="1" fill="#000000" /><rect x="25" y="4" width="1" height="1" fill="#76428A" /><rect x="6" y="5" width="1" height="1" fill="#76428A" /><rect x="9" y="5" width="1" height="1" fill="#000000" /><rect x="25" y="5" width="1" height="1" fill="#76428A" /><rect x="6" y="6" width="1" height="1" fill="#76428A" /><rect x="9" y="6" width="1" height="1" fill="#000000" /><rect x="25" y="6" width="1" height="1" fill="#76428A" /><rect x="6" y="7" width="1" height="1" fill="#76428A" /><rect x="9" y="7" width="1" height="1" fill="#000000" /><rect x="25" y="7" width="1" height="1" fill="#76428A" /><rect x="6" y="8" width="1" height="1" fill="#76428A" /><rect x="25" y="8" width="1" height="1" fill="#76428A" /><rect x="6" y="9" width="1" height="1" fill="#76428A" /><rect x="9" y="9" width="1" height="1" fill="#000000" /><rect x="25" y="9" width="1" height="1" fill="#76428A" /><rect x="6" y="10" width="1" height="1" fill="#76428A" /><rect x="9" y="10" width="1" height="1" fill="#000000" /><rect x="25" y="10" width="1" height="1" fill="#76428A" /><rect x="6" y="11" width="1" height="1" fill="#76428A" /><rect x="9" y="11" width="1" height="1" fill="#000000" /><rect x="25" y="11" width="1" height="1" fill="#76428A" /><rect x="6" y="12" width="1" height="1" fill="#76428A" /><rect x="9" y="12" width="1" height="1" fill="#000000" /><rect x="25" y="12" width="1" height="1" fill="#76428A" /><rect x="6" y="13" width="1" height="1" fill="#76428A" /><rect x="9" y="13" width="1" height="1" fill="#000000" /><rect x="25" y="13" width="1" height="1" fill="#76428A" /><rect x="6" y="14" width="1" height="1" fill="#76428A" /><rect x="25" y="14" width="1" height="1" fill="#76428A" /><rect x="7" y="15" width="1" height="1" fill="#76428A" /><rect x="8" y="15" width="1" height="1" fill="#76428A" /><rect x="9" y="15" width="1" height="1" fill="#76428A" /><rect x="10" y="15" width="1" height="1" fill="#76428A" /><rect x="11" y="15" width="1" height="1" fill="#76428A" /><rect x="12" y="15" width="1" height="1" fill="#76428A" /><rect x="13" y="15" width="1" height="1" fill="#76428A" /><rect x="14" y="15" width="1" height="1" fill="#76428A" /><rect x="15" y="15" width="1" height="1" fill="#76428A" /><rect x="16" y="15" width="1" height="1" fill="#76428A" /><rect x="17" y="15" width="1" height="1" fill="#76428A" /><rect x="18" y="15" width="1" height="1" fill="#76428A" /><rect x="19" y="15" width="1" height="1" fill="#76428A" /><rect x="20" y="15" width="1" height="1" fill="#76428A" /><rect x="21" y="15" width="1" height="1" fill="#76428A" /><rect x="22" y="15" width="1" height="1" fill="#76428A" /><rect x="23" y="15" width="1" height="1" fill="#76428A" /><rect x="24" y="15" width="1" height="1" fill="#76428A" /></svg>