<svg xmlns="http://www.w3.org/2000/svg" viewBox="0 0 32 32" shape-rendering="crispEdges"><rect x="11" y="1" width="1" height="1" fill="#808080" /><rect x="12" y="1" width="1" height="1" fill="#808080" /><rect x="13" y="1" width="1" height="1" fill="#808080" /><rect x="14" y="1" width="1" height="1" fill="#808080" /><rect x="15" y="1" width="1" height="1" fill="#808080" /><rect x="16" y="1" width="1" height="1" fill="#808080" /><rect x="17" y="1" width="1" height="1" fill="#808080" /><rect x="18" y="1" width="1" height="1" fill="#808080" /><rect x="19" y="1" width="1" height="1" fill="#808080" /><rect x="20" y="1" width="1" height="1" fill="#808080" /><rect x="9" y="2" width="1" height="1" fill="#808080" /><rect x="10" y="2" width="1" height="1" fill="#808080" /><rect x="21" y="2" width="1" height="1" fill="#808080" /><rect x="22" y="2" width="1" height="1" fill="#808080" /><rect x="7" y="3" width="1" height="1" fill="#808080" /><rect x="8" y="3" width="1" height="1" fill="#808080" /><rect x="23" y="3" width="1" height="1" fill="#808080" /><rect x="24" y="3" width="1" height="1" fill="#808080" /><rect x="6" y="4" width="1" height="1" fill="#808080" /><rect x="7" y="4" width="1" height="1" fill="#808080" /><rect x="24" y="4" width="1" height="1" fill="#808080" /><rect x="25" y="4" width="1" height="1" fill="#808080" /><rect x="5" y="5" width="1" height="1" fill="#808080" /><rect x="6" y="5" width="1" height="1" fill="#808080" /><rect x="25" y="5" width="1" height="1" fill="#808080" /><rect x="26" y="5" width="1" height="1" fill="#808080" /><rect x="5" y="6" width="1" height="1" fill="#808080" /><rect x="6" y="6" width="1" height="1" fill="#808080" /><rect x="16" y="6" width="1" height="1" fill="#000000" /><rect x="25" y="6" width="1" height="1" fill="#808080" /><rect x="26" y="6" width="1" height="1" fill="#808080" /><rect x="4" y="7" width="1" height="1" fill="#808080" /><rect x="5" y="7" width="1" height="1" fill="#808080" /><rect x="16" y="7" width="1" height="1" fill="#000000" /><rect x="26" y="7" width="1" height="1" fill="#808080" /><rect x="27" y="7" width="1" height="1" fill="#808080" /><rect x="4" y="8" width="1" height="1" fill="#808080" /><rect x="5" y="8" width="1" height="1" fill="#808080" /><rect x="16" y="8" width="1" height="1" fill="#000000" /><rect x="26" y="8" width="1" height="1" fill="#808080" /><rect x="27" y="8" width="1" height="1" fill="#808080" /><rect x="4" y="9" width="1" height="1" fill="#808080" /><rect x="5" y="9" width="1" height="1" fill="#808080" /><rect x="16" y="9" width="1" height="1" fill="#000000" /><rect x="26" y="9" width="1" height="1" fill="#808080" /><rect x="27" y="9" width="1" height="1" fill="#808080" /><rect x="4" y="10" width="1" height="1" fill="#808080" /><rect x="5" y="10" width="1" height="1" fill="#808080" /><rect x="13" y="10" width="1" height="1" fill="#000000" /><rect x="14" y="10" width="1" height="1" fill="#000000" /><rect x="15" y="10" width="1" height="1" fill="#000000" /><rect x="16" y="10" width="1" height="1" fill="#000000" /><rect x="17" y="10" width="1" height="1" fill="#000000" /><rect x="18" y="10" width="1" height="1" fill="#000000" /><rect x="19" y="10" width="1" height="1" fill="#000000" /><rect x="26" y="10" width="1" height="1" fill="#808080" /><rect x="27" y="10" width="1" height="1" fill="#808080" /><rect x="4" y="11" width="1" height="1" fill="#808080" /><rect x="5" y="11" width="1" height="1" fill="#808080" /><rect x="16" y="11" width="1" height="1" fill="#000000" /><rect x="26" y="11" width="1" height="1" fill="#808080" /><rect x="27" y="11" width="1" height="1" fill="#808080" /><rect x="5" y="12" width="1" height="1" fill="#808080" /><rect x="6" y="12" width="1" height="1" fill="#808080" /><rect x="16" y="12" width="1" height="1" fill="#000000" /><rect x="25" y="12" width="1" height="1" fill="#808080" /><rect x="26" y="12" width="1" height="1" fill="#808080" /><rect x="5" y="13" width="1" height="1" fill="#808080" /><rect x="6" y="13" width="1" height="1" fill="#808080" /><rect x="25" y="13" width="1" height="1" fill="#808080" /><rect x="26" y="13" width="1" height="1" fill="#808080" /><rect x="6" y="14" width="1" height="1" fill="#808080" /><rect x="7" y="14" width="1" height="1" fill="#808080" /><rect x="24" y="14" width="1" height="1" fill="#808080" /><rect x="25" y="14" width="1" height="1" fill="#808080" /><rect x="7" y="15" width="1" height="1" fill="#808080" /><rect x="8" y="15" width="1" height="1" fill="#808080" /><rect x="23" y="15" width="1" height="1" fill="#808080" /><rect x="24" y="15" width="1" height="1" fill="#808080" /><rect x="9" y="16" width="1" height="1" fill="#808080" /><rect x="10" y="16" width="1" height="1" fill="#808080" /><rect x="21" y="16" width="1" height="1" fill="#808080" /><rect x="22" y="16" width="1" height="1" fill="#808080" /><rect x="11" y="17" width="1" height="1" fill="#808080" /><rect x="12" y="17" width="1" height="1" fill="#808080" /><rect x="13" y="17" width="1" height="1" fill="#808080" /><rect x="14" y="17" width="1" height="1" fill="#808080" /><rect x="15" y="17" width="1" height="1" fill="#808080" /><rect x="16" y="17" width="1" height="1" fill="#808080" /><rect x="17" y="17" width="1" height="1" fill="#808080" /><rect x="18" y="17" width="1" height="1" fill="#808080" /><rect x="19" y="17" width="1" height="1" fill="#808080" /><rect x="20" y="17" width="1" height="1" fill="#808080" /></svg>