<svg xmlns="http://www.w3.org/2000/svg" viewBox="0 0 32 32" shape-rendering="crispEdges"><rect x="4" y="1" width="1" height="1" fill="#FFFFFF" /><rect x="5" y="1" width="1" height="1" fill="#FFFFFF" /><rect x="6" y="1" width="1" height="1" fill="#FFFFFF" /><rect x="7" y="1" width="1" height="1" fill="#FFFFFF" /><rect x="8" y="1" width="1" height="1" fill="#FFFFFF" /><rect x="9" y="1" width="1" height="1" fill="#FFFFFF" /><rect x="10" y="1" width="1" height="1" fill="#FFFFFF" /><rect x="11" y="1" width="1" height="1" fill="#FFFFFF" /><rect x="12" y="1" width="1" height="1" fill="#FFFFFF" /><rect x="13" y="1" width="1" height="1" fill="#FFFFFF" /><rect x="14" y="1" width="1" height="1" fill="#FFFFFF" /><rect x="15" y="1" width="1" height="1" fill="#FFFFFF" /><rect x="16" y="1" width="1" height="1" fill="#FFFFFF" /><rect x="17" y="1" width="1" height="1" fill="#FFFFFF" /><rect x="18" y="1" width="1" height="1" fill="#FFFFFF" /><rect x="19" y="1" width="1" height="1" fill="#FFFFFF" /><rect x="20" y="1" width="1" height="1" fill="#FFFFFF" /><rect x="21" y="1" width="1" height="1" fill="#FFFFFF" /><rect x="22" y="1" width="1" height="1" fill="#FFFFFF" /><rect x="23" y="1" width="1" height="1" fill="#FFFFFF" /><rect x="24" y="1" width="1" height="1" fill="#FFFFFF" /><rect x="25" y="1" width="1" height="1" fill="#FFFFFF" /><rect x="26" y="1" width="1" height="1" fill="#FFFFFF" /><rect x="27" y="1" width="1" height="1" fill="#FFFFFF" /><rect x="4" y="2" width="1" height="1" fill="#FFFFFF" /><rect x="27" y="2" width="1" height="1" fill="#FFFFFF" /><rect x="4" y="3" width="1" height="1" fill="#FFFFFF" /><rect x="7" y="3" width="1" height="1" fill="#000000" /><rect x="8" y="3" width="1" height="1" fill="#000000" /><rect x="9" y="3" width="1" height="1" fill="#000000" /><rect x="10" y="3" width="1" height="1" fill="#000000" /><rect x="11" y="3" width="1" height="1" fill="#000000" /><rect x="12" y="3" width="1" height="1" fill="#000000" /><rect x="13" y="3" width="1" height="1" fill="#000000" /><rect x="14" y="3" width="1" height="1" fill="#000000" /><rect x="15" y="3" width="1" height="1" fill="#000000" /><rect x="16" y="3" width="1" height="1" fill="#000000" /><rect x="17" y="3" width="1" height="1" fill="#000000" /><rect x="18" y="3" width="1" height="1" fill="#000000" /><rect x="19" y="3" width="1" height="1" fill="#000000" /><rect x="20" y="3" width="1" height="1" fill="#000000" /><rect x="21" y="3" width="1" height="1" fill="#000000" /><rect x="22" y="3" width="1" height="1" fill="#000000" /><rect x="23" y="3" width="1" height="1" fill="#000000" /><rect x="24" y="3" width="1" height="1" fill="#000000" /><rect x="27" y="3" width="1" height="1" fill="#FFFFFF" /><rect x="4" y="4" width="1" height="1" fill="#FFFFFF" /><rect x="27" y="4" width="1" height="1" fill="#FFFFFF" /><rect x="4" y="5" width="1" height="1" fill="#FFFFFF" /><rect x="7" y="5" width="1" height="1" fill="#000000" /><rect x="8" y="5" width="1" height="1" fill="#000000" /><rect x="9" y="5" width="1" height="1" fill="#000000" /><rect x="10" y="5" width="1" height="1" fill="#000000" /><rect x="11" y="5" width="1" height="1" fill="#000000" /><rect x="12" y="5" width="1" height="1" fill="#000000" /><rect x="13" y="5" width="1" height="1" fill="#000000" /><rect x="14" y="5" width="1" height="1" fill="#000000" /><rect x="15" y="5" width="1" height="1" fill="#000000" /><rect x="16" y="5" width="1" height="1" fill="#000000" /><rect x="17" y="5" width="1" height="1" fill="#000000" /><rect x="18" y="5" width="1" height="1" fill="#000000" /><rect x="19" y="5" width="1" height="1" fill="#000000" /><rect x="20" y="5" width="1" height="1" fill="#000000" /><rect x="21" y="5" width="1" height="1" fill="#000000" /><rect x="22" y="5" width="1" height="1" fill="#000000" /><rect x="23" y="5" width="1" height="1" fill="#000000" /><rect x="24" y="5" width="1" height="1" fill="#000000" /><rect x="27" y="5" width="1" height="1" fill="#FFFFFF" /><rect x="4" y="6" width="1" height="1" fill="#FFFFFF" /><rect x="27" y="6" width="1" height="1" fill="#FFFFFF" /><rect x="4" y="7" width="1" height="1" fill="#FFFFFF" /><rect x="7" y="7" width="1" height="1" fill="#000000" /><rect x="8" y="7" width="1" height="1" fill="#000000" /><rect x="9" y="7" width="1" height="1" fill="#000000" /><rect x="10" y="7" width="1" height="1" fill="#000000" /><rect x="11" y="7" width="1" height="1" fill="#000000" /><rect x="12" y="7" width="1" height="1" fill="#000000" /><rect x="13" y="7" width="1" height="1" fill="#000000" /><rect x="14" y="7" width="1" height="1" fill="#000000" /><rect x="15" y="7" width="1" height="1" fill="#000000" /><rect x="16" y="7" width="1" height="1" fill="#000000" /><rect x="17" y="7" width="1" height="1" fill="#000000" /><rect x="18" y="7" width="1" height="1" fill="#000000" /><rect x="19" y="7" width="1" height="1" fill="#000000" /><rect x="20" y="7" width="1" height="1" fill="#000000" /><rect x="21" y="7" width="1" height="1" fill="#000000" /><rect x="22" y="7" width="1" height="1" fill="#000000" /><rect x="23" y="7" width="1" height="1" fill="#000000" /><rect x="24" y="7" width="1" height="1" fill="#000000" /><rect x="27" y="7" width="1" height="1" fill="#FFFFFF" /><rect x="4" y="8" width="1" height="1" fill="#FFFFFF" /><rect x="27" y="8" width="1" height="1" fill="#FFFFFF" /><rect x="4" y="9" width="1" height="1" fill="#FFFFFF" /><rect x="7" y="9" width="1" height="1" fill="#000000" /><rect x="8" y="9" width="1" height="1" fill="#000000" /><rect x="9" y="9" width="1" height="1" fill="#000000" /><rect x="10" y="9" width="1" height="1" fill="#000000" /><rect x="11" y="9" width="1" height="1" fill="#000000" /><rect x="12" y="9" width="1" height="1" fill="#000000" /><rect x="13" y="9" width="1" height="1" fill="#000000" /><rect x="14" y="9" width="1" height="1" fill="#000000" /><rect x="15" y="9" width="1" height="1" fill="#000000" /><rect x="16" y="9" width="1" height="1" fill="#000000" /><rect x="17" y="9" width="1" height="1" fill="#000000" /><rect x="18" y="9" width="1" height="1" fill="#000000" /><rect x="19" y="9" width="1" height="1" fill="#000000" /><rect x="20" y="9" width="1" height="1" fill="#000000" /><rect x="21" y="9" width="1" height="1" fill="#000000" /><rect x="22" y="9" width="1" height="1" fill="#000000" /><rect x="23" y="9" width="1" height="1" fill="#000000" /><rect x="24" y="9" width="1" height="1" fill="#000000" /><rect x="27" y="9" width="1" height="1" fill="#FFFFFF" /><rect x="4" y="10" width="1" height="1" fill="#FFFFFF" /><rect x="27" y="10" width="1" height="1" fill="#FFFFFF" /><rect x="4" y="11" width="1" height="1" fill="#FFFFFF" /><rect x="7" y="11" width="1" height="1" fill="#000000" /><rect x="8" y="11" width="1" height="1" fill="#000000" /><rect x="9" y="11" width="1" height="1" fill="#000000" /><rect x="10" y="11" width="1" height="1" fill="#000000" /><rect x="11" y="11" width="1" height="1" fill="#000000" /><rect x="12" y="11" width="1" height="1" fill="#000000" /><rect x="27" y="11" width="1" height="1" fill="#FFFFFF" /><rect x="4" y="12" width="1" height="1" fill="#FFFFFF" /><rect x="27" y="12" width="1" height="1" fill="#FFFFFF" /><rect x="4" y="13" width="1" height="1" fill="#FFFFFF" /><rect x="5" y="13" width="1" height="1" fill="#FFFFFF" /><rect x="6" y="13" width="1" height="1" fill="#FFFFFF" /><rect x="7" y="13" width="1" height="1" fill="#FFFFFF" /><rect x="8" y="13" width="1" height="1" fill="#FFFFFF" /><rect x="9" y="13" width="1" height="1" fill="#FFFFFF" /><rect x="10" y="13" width="1" height="1" fill="#FFFFFF" /><rect x="11" y="13" width="1" height="1" fill="#FFFFFF" /><rect x="12" y="13" width="1" height="1" fill="#FFFFFF" /><rect x="13" y="13" width="1" height="1" fill="#FFFFFF" /><rect x="14" y="13" width="1" height="1" fill="#FFFFFF" /><rect x="15" y="13" width="1" height="1" fill="#FFFFFF" /><rect x="16" y="13" width="1" height="1" fill="#FFFFFF" /><rect x="17" y="13" width="1" height="1" fill="#FFFFFF" /><rect x="18" y="13" width="1" height="1" fill="#FFFFFF" /><rect x="19" y="13" width="1" height="1" fill="#FFFFFF" /><rect x="20" y="13" width="1" height="1" fill="#FFFFFF" /><rect x="21" y="13" width="1" height="1" fill="#FFFFFF" /><rect x="22" y="13" width="1" height="1" fill="#FFFFFF" /><rect x="23" y="13" width="1" height="1" fill="#FFFFFF" /><rect x="24" y="13" width="1" height="1" fill="#FFFFFF" /><rect x="25" y="13" width="1" height="1" fill="#FFFFFF" /><rect x="26" y="13" width="1" height="1" fill="#FFFFFF" /><rect x="27" y="13" width="1" height="1" fill="#FFFFFF" /></svg>